<svg viewBox="0 0 858 858" fill="none" xmlns="http://www.w3.org/2000/svg">
<path fill-rule="evenodd" clip-rule="evenodd" d="M97.2763 103.653C98.4014 109.735 100.583 117.319 101.065 125.01C102.07 141.07 109.406 152.8 120.806 164.155C274.918 317.65 428.6 471.575 582.392 625.393C585.794 628.797 589.443 631.983 592.547 635.636C596.879 640.737 600.361 640.808 605.121 635.767C615.529 624.744 626.176 613.905 637.318 603.634C643.332 598.095 642.163 594.767 636.92 589.528C476.991 429.812 317.198 269.958 157.42 110.089C153.682 106.347 149.84 103.179 144.406 102.247C131.296 100.003 118.202 97.6512 105.13 95.193C99.3686 94.1096 96.5358 96.0095 97.2763 103.653ZM34.7487 0.0163114C61.193 4.44779 91.0749 9.41318 120.941 14.4765C139.886 17.6866 158.734 21.5575 177.765 24.1069C186.935 25.3349 193.321 29.6529 199.529 35.8686C351.927 188.448 504.418 340.935 656.891 493.439C669.708 506.255 682.698 518.904 695.26 531.963C700.266 537.166 703.963 537.302 708.888 531.943C715.886 524.324 723.286 517.038 730.868 509.992C742.165 499.497 754.061 498.963 765.535 509.334C776.768 519.489 787.505 530.277 797.685 541.491C807.046 551.8 808.504 563.488 801.438 576.253C786.04 604.079 771.343 632.299 755.798 660.042C751.195 668.253 751.98 673.646 758.773 680.268C786.305 707.133 813.331 734.514 840.481 761.77C844.385 765.692 848.236 769.741 851.596 774.128C859.732 784.76 860.394 793.338 851.976 803.355C837.941 820.06 822.546 835.639 805.749 849.557C793.678 859.559 783.318 857.786 770.593 845.145C741.727 816.465 712.608 788.026 684.505 758.614C675.753 749.455 669.114 749.55 658.933 755.395C633.284 770.117 607.118 783.95 581 797.841C562.058 807.916 554.04 806.472 538.685 791.18C529.775 782.306 520.699 773.581 512.107 764.406C501.098 752.647 501.103 740.734 511.969 728.948C518.484 721.883 525.028 714.719 532.388 708.593C540.283 702.021 539.619 696.864 531.965 691.149C529.911 689.614 528.268 687.532 526.438 685.701C364.025 523.256 201.65 360.777 39.0823 198.487C31.6714 191.09 27.1176 183.329 25.45 172.897C18.0367 126.552 9.97205 80.3124 2.30758 34.0066C-0.960992 14.2584 11.5752 -0.292913 34.7487 0.0163114Z" fill="currentColor"/>
<path fill-rule="evenodd" clip-rule="evenodd" d="M824.774 0.00449957C846.369 -0.282479 858.2 13.1855 855.031 32.5131C847.149 80.6343 839.242 128.751 831.442 176.883C830.282 184.058 827.471 189.955 822.183 195.221C759.829 257.342 697.562 319.552 635.526 381.988C629.169 388.384 625.011 389.087 618.554 382.211C605.144 367.929 591.276 354.038 576.976 340.65C570.208 334.312 570.397 330.319 576.947 323.821C632.084 269.13 686.756 213.97 741.957 159.346C749.815 151.569 754.095 143.229 755.322 132.488C756.45 122.591 758.322 112.751 760.432 103.007C761.851 96.4448 760.258 93.8197 753.323 95.1122C740.614 97.4815 727.891 99.7951 715.13 101.866C708.061 103.014 703.33 107.397 698.56 112.175C643.964 166.881 589.301 221.525 534.647 276.176C523.752 287.067 523.716 287.063 513.059 276.427C499.709 263.106 486.615 249.513 472.951 236.521C466.854 230.726 467.466 226.882 473.196 221.18C536.368 158.314 599.334 95.239 662.312 32.1728C666.075 28.4042 670.108 25.6568 675.538 24.7469C722.901 16.7938 770.238 8.70061 817.59 0.696362C820.494 0.204717 823.469 0.12463 824.774 0.00449957Z" fill="currentColor"/>
</svg>
