<svg viewBox="0 0 335 26" fill="none" xmlns="http://www.w3.org/2000/svg">
<path d="M3.992 14.92C3.992 18.952 3.928 20.808 3.8 22.568C3.704 23.752 3.352 24.232 2.776 24.328C2.52 24.392 2.232 24.424 1.816 24.456C1.336 24.456 1.176 24.552 1.176 24.776C1.176 25 1.4 25.096 1.848 25.096C3.576 25.096 5.08 25 6.488 25C7.448 25 11.224 25.192 12.408 25.192C18.776 25.192 22.104 21.672 22.104 18.12C22.104 14.248 19.256 12.2 15.896 11.176C18.008 10.088 19.8 8.424 19.8 5.832C19.8 4.04 18.52 0.903999 11.768 0.903999C10.52 0.903999 8.632 0.999998 6.52 0.999998C4.952 0.999998 3.352 0.903999 1.4 0.903999C1.016 0.903999 0.76 0.967999 0.76 1.224C0.76 1.384 0.856 1.512 1.336 1.544C1.688 1.576 2.136 1.608 2.52 1.64C3.448 1.736 3.896 2.248 3.928 3.56C3.96 4.584 3.992 5.48 3.992 10.184V14.92ZM9.528 3.4C9.528 2.952 9.656 2.888 9.848 2.824C10.104 2.728 10.488 2.664 11 2.664C13.528 2.664 14.808 4.84 14.808 7.432C14.808 8.808 14.424 9.928 13.752 10.472C13.304 10.856 12.568 10.984 11.832 10.984C11.384 10.984 10.328 10.952 9.816 10.856C9.656 10.824 9.528 10.792 9.528 10.536V3.4ZM9.528 13.032C9.528 12.872 9.592 12.808 9.72 12.808C10.04 12.776 10.808 12.776 11.32 12.808C12.312 12.872 13.432 13.192 14.296 14.024C15.768 15.4 16.184 17.288 16.184 18.952C16.184 22.152 14.2 23.304 12.536 23.304C11.896 23.304 11.128 23.208 10.424 22.792C9.784 22.472 9.656 22.056 9.592 21.032C9.496 19.4 9.528 17.16 9.528 15.624V13.032ZM32.7005 12.52C32.7005 7.848 32.7325 7.432 32.7965 6.536C32.8605 5.544 33.0845 5.032 33.8845 4.904C34.3005 4.808 34.4285 4.808 34.7485 4.776C35.0045 4.776 35.2605 4.68 35.2605 4.424C35.2605 4.264 35.1325 4.136 34.6205 4.136C33.5965 4.136 29.8845 4.232 29.7245 4.232C28.5085 4.232 27.1005 4.136 25.3725 4.136C24.7965 4.136 24.5725 4.232 24.5725 4.456C24.5725 4.68 24.8285 4.744 25.1485 4.776C25.5645 4.808 25.9485 4.872 26.2045 4.936C26.8765 5.128 27.1325 5.576 27.1965 6.344C27.2605 7.24 27.2925 7.56 27.2925 12.168V17.032C27.2925 18.568 27.2605 20.104 27.2605 21.192C27.1645 23.752 27.0365 24.2 25.8845 24.392C25.5645 24.424 25.5005 24.424 25.2125 24.456C24.8285 24.456 24.6685 24.616 24.6685 24.744C24.6685 25 24.8925 25.096 25.3405 25.096C26.9725 25.096 28.4125 25 29.7565 25C32.7965 25 35.4525 25.16 39.7725 25.16C40.8285 25.16 41.0205 25.16 41.2765 24.424C41.5645 23.624 41.9805 20.84 41.9805 20.136C41.9805 19.752 41.9165 19.56 41.7245 19.56C41.4685 19.56 41.3725 19.816 41.3085 20.136C40.9565 21.672 40.3485 22.344 39.5485 22.664C38.7485 22.952 37.9805 22.984 36.3805 22.984C33.9805 22.984 33.4685 22.888 33.0525 22.312C32.6045 21.704 32.7005 19.688 32.7005 17.064V12.52ZM56.231 25.48C63.783 25.48 68.295 20.584 68.295 14.088C68.295 8.648 63.719 3.752 56.423 3.752C48.007 3.752 44.039 8.936 44.039 14.728C44.039 19.624 47.719 25.48 56.231 25.48ZM56.999 23.56C52.231 23.56 50.183 18.472 50.183 13.352C50.183 6.856 52.967 5.608 55.431 5.608C60.615 5.608 62.151 11.144 62.151 15.368C62.151 22.888 58.759 23.56 56.999 23.56ZM86.1838 25.48C87.9757 25.48 89.9598 25.32 91.0798 24.872C91.5278 24.712 91.7518 24.424 91.8478 23.944C92.0718 22.6 92.4558 20.168 92.4558 19.624C92.4558 19.336 92.3598 19.144 92.1678 19.144C91.9438 19.144 91.8478 19.24 91.7198 19.816C91.5278 20.68 91.1438 21.448 90.7918 21.832C89.6718 23.016 88.2958 23.208 86.0238 23.208C81.1278 23.208 78.1518 19.272 78.1518 13.768C78.1518 10.76 78.9518 8.264 80.6478 6.92C81.6718 6.056 83.1118 5.672 84.6158 5.672C87.3998 5.672 89.3518 6.344 90.3438 7.4C91.3358 8.456 91.3678 9.608 91.3998 10.152C91.4318 10.536 91.5278 10.76 91.7518 10.76C92.0078 10.76 92.1038 10.504 92.1358 10.088C92.1998 9.288 92.2318 7.688 92.2638 6.76C92.3278 5.832 92.3918 5.032 92.3918 4.808C92.3918 4.648 92.3918 4.456 92.0718 4.424C91.2078 4.424 90.6318 4.296 89.2878 4.072C88.1998 3.912 86.7917 3.752 85.1918 3.752C81.0958 3.752 78.1518 4.52 75.6238 6.568C72.7118 8.904 72.0078 12.392 72.0078 14.28C72.0078 17.288 72.8078 20.104 75.6558 22.44C78.7598 24.904 82.4718 25.48 86.1838 25.48ZM103.668 12.168C103.668 7.848 103.668 7.432 103.732 6.536C103.764 5.672 103.86 5 104.916 4.872C105.14 4.84 105.428 4.808 105.62 4.776C106.004 4.744 106.164 4.648 106.164 4.456C106.164 4.264 106.1 4.136 105.556 4.136C104.564 4.136 100.916 4.232 100.756 4.232C100.66 4.232 97.3638 4.136 96.2438 4.136C95.6678 4.136 95.5078 4.264 95.5078 4.424C95.5078 4.648 95.7638 4.744 96.0838 4.776C96.3718 4.808 96.6598 4.84 97.1398 4.904C97.9718 5.064 98.1638 5.512 98.2278 6.184C98.3238 7.08 98.3238 7.848 98.3238 12.168V17.032C98.3238 19.752 98.2598 21.608 98.1318 22.76C98.0677 23.56 97.9398 24.232 96.9478 24.36C96.6278 24.424 96.5638 24.424 96.3078 24.456C95.9557 24.488 95.7318 24.584 95.7318 24.808C95.7318 25.032 95.9878 25.096 96.3078 25.096C97.2358 25.096 100.692 25 100.756 25C100.916 25 104.244 25.096 106.228 25.096C106.612 25.096 106.772 24.936 106.772 24.776C106.772 24.648 106.644 24.488 106.292 24.456C105.94 24.424 105.46 24.424 105.076 24.36C104.052 24.232 103.828 23.56 103.764 22.856C103.668 21.704 103.668 19.144 103.668 17.032V14.728C105.716 17.768 108.5 21.608 110.196 23.272C111.7 24.712 113.076 25.096 116.948 25.096H119.828C120.116 25.096 120.404 25.032 120.404 24.808C120.404 24.584 120.276 24.488 119.828 24.456C119.284 24.36 118.9 24.296 118.388 24.008C117.908 23.752 117.236 23.272 115.732 21.704C113.62 19.464 109.044 13.96 108.02 12.36C108.756 11.592 111.796 8.488 113.108 7.272C114.484 6.056 115.412 5.192 116.948 4.936C117.268 4.872 117.492 4.84 117.876 4.776C118.228 4.744 118.42 4.616 118.42 4.456C118.42 4.264 118.292 4.168 117.78 4.168C117.428 4.168 115.284 4.232 113.524 4.232C111.796 4.232 111.764 4.168 110.452 4.168C110.1 4.168 109.94 4.296 109.94 4.456C109.94 4.648 110.196 4.744 110.484 4.776C111.22 4.904 111.284 5.096 111.284 5.416C111.284 5.864 110.708 6.6 109.844 7.528C107.412 10.216 105.332 12.264 103.668 13.8V12.168ZM144.939 25.544C146.987 25.544 149.163 25.32 150.443 24.808C150.987 24.616 151.211 24.36 151.275 23.88C151.595 22.344 151.979 19.56 151.979 19.016C151.979 18.76 151.947 18.44 151.723 18.44C151.467 18.44 151.371 18.664 151.211 19.336C150.955 20.296 150.603 21 150.155 21.48C148.907 22.888 147.275 23.112 144.651 23.112C139.275 23.112 135.691 18.696 135.691 12.104C135.691 8.68 136.555 5.704 138.507 4.008C139.755 2.92 141.323 2.472 143.211 2.472C146.315 2.472 148.555 3.304 149.675 4.488C150.731 5.64 150.859 6.92 150.891 7.624C150.923 8.072 151.019 8.296 151.275 8.296C151.563 8.296 151.627 8.008 151.659 7.528C151.723 6.728 151.691 4.84 151.755 3.784C151.819 2.696 151.915 1.928 151.915 1.672C151.915 1.48 151.915 1.288 151.563 1.256C150.603 1.224 149.835 1.064 148.395 0.839998C147.147 0.647999 145.675 0.455999 143.851 0.455999C139.211 0.455999 136.011 1.416 133.259 3.752C130.027 6.472 129.291 10.44 129.291 12.616C129.291 16.04 130.187 19.336 133.323 22.024C136.683 24.84 140.779 25.544 144.939 25.544ZM163.424 12.552C163.328 12.552 163.232 12.552 163.232 12.392V11.816C163.232 8.52 163.232 7.368 163.328 6.472C163.392 5.736 163.52 5.064 164.352 4.904C164.608 4.84 164.864 4.808 165.248 4.776C165.632 4.744 165.76 4.616 165.76 4.488C165.76 4.296 165.696 4.136 165.152 4.136C163.904 4.136 161.696 4.232 160.512 4.232C159.872 4.232 157.312 4.136 155.616 4.136C155.296 4.136 155.008 4.232 155.008 4.424C155.008 4.52 155.04 4.744 155.488 4.776C155.84 4.808 155.936 4.808 156.352 4.872C157.44 5.032 157.664 5.544 157.728 6.472C157.792 7.368 157.824 7.944 157.824 12.264V17.032C157.824 19.72 157.792 21.512 157.664 22.696C157.6 23.56 157.344 24.264 156.608 24.36C156.256 24.424 156.096 24.424 155.776 24.456C155.392 24.488 155.296 24.616 155.296 24.808C155.296 25 155.584 25.096 155.904 25.096C156.768 25.096 160.128 25 160.256 25C160.416 25 164.192 25.096 165.792 25.096C166.24 25.096 166.336 24.936 166.336 24.808C166.336 24.616 166.176 24.488 165.792 24.456C165.568 24.424 165.12 24.424 164.704 24.328C163.84 24.232 163.488 23.688 163.392 22.856C163.264 21.704 163.232 20.84 163.232 18.184V15.24C163.232 15.08 163.328 15.048 163.424 15.048H171.872C171.968 15.048 172.064 15.112 172.064 15.24V17.352C172.064 20.04 172.032 21.64 171.904 22.792C171.808 23.72 171.616 24.232 170.912 24.36C170.656 24.424 170.432 24.424 170.08 24.456C169.728 24.456 169.568 24.648 169.568 24.776C169.568 24.936 169.632 25.096 170.176 25.096C171.648 25.096 173.92 25 174.368 25C174.816 25 177.984 25.096 179.936 25.096C180.288 25.096 180.576 25.032 180.576 24.808C180.576 24.616 180.416 24.488 180.032 24.456C179.776 24.424 179.232 24.424 178.848 24.36C177.984 24.232 177.728 23.784 177.632 22.824C177.504 21.704 177.472 19.72 177.472 17.032V12.168C177.472 7.848 177.472 7.208 177.568 6.312C177.664 5.416 177.888 5 178.624 4.904C178.944 4.84 178.976 4.84 179.52 4.776C179.872 4.776 179.968 4.616 179.968 4.456C179.968 4.264 179.904 4.136 179.392 4.136C178.144 4.136 174.56 4.232 174.432 4.232C174.272 4.232 171.488 4.136 169.792 4.136C169.344 4.136 169.216 4.264 169.216 4.456C169.216 4.552 169.376 4.776 169.76 4.776C170.112 4.808 170.528 4.84 170.752 4.872C171.712 5.032 171.936 5.544 172 6.248C172.064 7.144 172.064 7.496 172.064 11.816V12.392C172.064 12.552 171.968 12.552 171.872 12.552H163.424ZM194.613 19.816C194.709 19.816 194.837 19.88 194.869 19.976L196.629 23.912C196.789 24.264 196.501 24.296 196.245 24.392C196.053 24.456 195.861 24.52 195.861 24.712C195.861 24.872 196.053 25 196.437 25C198.133 25.032 201.461 25.064 204.693 25.096C205.013 25.096 205.269 25 205.269 24.776C205.269 24.616 205.077 24.456 204.725 24.456C204.565 24.456 204.341 24.424 204.085 24.392C202.997 24.232 202.485 23.496 201.493 21.448C199.573 17.224 194.613 6.824 193.909 5.256C193.365 4.168 193.109 3.752 192.789 3.752C192.437 3.752 192.117 4.168 191.445 5.64L183.765 22.024C182.933 23.912 182.197 24.296 180.82 24.456C180.468 24.456 180.308 24.584 180.308 24.776C180.308 24.968 180.436 25.096 180.884 25.096C182.261 25.096 184.117 25 184.437 25C186.069 25 187.029 25.096 188.437 25.096C188.821 25.096 188.981 24.968 188.981 24.744C188.981 24.616 188.885 24.488 188.469 24.456C187.733 24.392 186.516 24.36 186.516 23.432C186.516 23.08 186.709 22.44 186.997 21.736L187.669 20.104C187.701 20.008 187.797 19.816 187.989 19.816H194.613ZM188.885 17.288C188.821 17.288 188.757 17.256 188.789 17.16L191.157 11.464C191.22 11.336 191.22 11.272 191.317 11.432L193.845 17.16C193.877 17.224 193.877 17.288 193.685 17.288H188.885ZM208.23 17.032C208.23 19.784 208.198 21.704 208.038 22.856C207.974 23.656 207.718 24.232 207.11 24.36C206.726 24.424 206.438 24.424 206.182 24.456C205.862 24.456 205.702 24.616 205.702 24.776C205.702 25 205.894 25.096 206.374 25.096C207.27 25.096 210.598 25 210.662 25C210.822 25 214.118 25.096 216.102 25.096C216.582 25.096 216.71 24.936 216.71 24.808C216.71 24.648 216.582 24.456 216.102 24.456C215.782 24.424 215.302 24.424 214.918 24.328C214.054 24.136 213.862 23.656 213.798 22.952C213.67 21.768 213.638 19.144 213.638 17.032V12.168C213.638 7.848 213.638 7.176 213.734 6.28C213.862 5.32 214.118 5.032 214.886 4.872C215.206 4.808 215.238 4.808 215.526 4.776C215.878 4.744 216.102 4.68 216.102 4.456C216.102 4.264 216.038 4.136 215.526 4.136C214.438 4.136 210.822 4.232 210.662 4.232C210.566 4.232 207.494 4.136 206.374 4.136C205.83 4.136 205.734 4.296 205.734 4.456C205.734 4.648 205.894 4.744 206.278 4.776C206.662 4.808 206.982 4.84 207.174 4.904C207.878 5 208.07 5.512 208.134 6.248C208.23 7.112 208.23 7.848 208.23 12.168V17.032ZM221.555 21.032C221.459 23.592 221.203 24.232 220.019 24.392C219.667 24.424 219.507 24.424 219.219 24.456C218.835 24.488 218.707 24.616 218.707 24.776C218.707 25 218.867 25.096 219.347 25.096C220.307 25.096 222.643 25 223.443 25C225.459 25.032 226.323 25.096 227.123 25.096C227.635 25.096 227.827 25 227.827 24.776C227.827 24.616 227.699 24.52 227.219 24.456C226.643 24.424 226.323 24.392 225.779 24.264C224.915 24.04 224.851 23.24 224.787 21.32L224.499 12.328C226.963 14.568 229.427 16.68 230.963 18.056C232.339 19.304 234.611 21.256 236.595 22.92C238.867 24.776 239.859 25.48 240.339 25.48C240.755 25.48 240.947 25.192 240.947 23.592C240.979 18.024 241.075 12.36 241.331 7.144C241.427 5.384 241.747 4.968 242.707 4.84C242.899 4.808 242.995 4.808 243.347 4.776C243.763 4.744 243.827 4.552 243.827 4.424C243.827 4.264 243.699 4.136 243.219 4.136C242.067 4.136 240.563 4.232 239.859 4.232C238.579 4.232 236.595 4.136 235.539 4.136C235.251 4.136 234.995 4.232 234.995 4.456C234.995 4.584 235.123 4.744 235.507 4.776C235.955 4.808 236.307 4.84 236.659 4.904C237.907 5.096 238.099 5.832 238.163 7.368L238.323 17.16C237.491 16.424 235.987 15.144 232.819 12.36C229.267 9.224 224.851 5.448 223.475 4.36C222.675 3.752 222.547 3.752 222.387 3.752C221.971 3.752 221.875 4.232 221.843 5.16C221.715 8.872 221.715 15.304 221.555 21.032ZM263.249 23.56C263.825 25.064 264.049 25.544 264.465 25.544C264.977 25.544 265.361 24.872 265.873 23.72C267.473 20.296 270.321 13.48 271.633 10.216L278.033 23.944C278.545 25.064 278.801 25.544 279.217 25.544C279.761 25.544 280.113 24.648 280.497 23.592C282.833 17.512 285.873 8.904 287.249 5.096C288.081 2.824 288.561 1.896 289.489 1.704C289.969 1.576 290.193 1.576 290.513 1.544C290.897 1.544 291.025 1.416 291.025 1.224C291.025 0.967999 290.769 0.935999 290.385 0.935999C289.265 0.935999 286.993 0.999998 286.769 0.999998C286.481 0.999998 284.849 0.903999 282.801 0.903999C282.193 0.903999 282.129 1.064 282.129 1.256C282.129 1.416 282.385 1.544 282.673 1.544C284.369 1.704 284.625 1.96 284.625 2.632C284.625 3.08 284.369 4.04 283.985 5.352C283.089 8.52 281.425 13.96 280.497 16.648L274.097 2.472C273.617 1.544 273.425 0.967999 273.009 0.967999C272.689 0.967999 272.433 1.288 272.113 2.12L266.449 16.616C265.393 13.864 262.993 6.408 262.641 5.256C262.193 3.784 261.873 2.792 261.873 2.376C261.873 1.992 262.065 1.736 262.449 1.672C262.801 1.576 262.929 1.576 263.249 1.544C263.537 1.544 263.761 1.448 263.761 1.224C263.761 0.999998 263.537 0.903999 263.089 0.903999C261.361 0.903999 259.089 0.999998 258.321 0.999998C257.841 0.999998 255.665 0.903999 253.681 0.903999C253.233 0.903999 253.009 0.999998 253.009 1.192C253.009 1.384 253.137 1.512 253.521 1.544C253.841 1.608 254.129 1.608 254.545 1.736C255.281 1.96 255.633 2.664 256.145 4.04L263.249 23.56ZM299.581 19.816C299.677 19.816 299.805 19.88 299.837 19.976L301.597 23.912C301.757 24.264 301.469 24.296 301.213 24.392C301.021 24.456 300.829 24.52 300.829 24.712C300.829 24.872 301.021 25 301.405 25C303.101 25.032 306.429 25.064 309.661 25.096C309.981 25.096 310.237 25 310.237 24.776C310.237 24.616 310.045 24.456 309.693 24.456C309.533 24.456 309.309 24.424 309.053 24.392C307.965 24.232 307.453 23.496 306.461 21.448C304.541 17.224 299.581 6.824 298.877 5.256C298.333 4.168 298.077 3.752 297.757 3.752C297.405 3.752 297.085 4.168 296.413 5.64L288.733 22.024C287.901 23.912 287.165 24.296 285.789 24.456C285.437 24.456 285.277 24.584 285.277 24.776C285.277 24.968 285.405 25.096 285.853 25.096C287.229 25.096 289.085 25 289.405 25C291.037 25 291.997 25.096 293.405 25.096C293.789 25.096 293.949 24.968 293.949 24.744C293.949 24.616 293.853 24.488 293.437 24.456C292.701 24.392 291.485 24.36 291.485 23.432C291.485 23.08 291.677 22.44 291.965 21.736L292.637 20.104C292.669 20.008 292.765 19.816 292.957 19.816H299.581ZM293.853 17.288C293.789 17.288 293.725 17.256 293.757 17.16L296.125 11.464C296.189 11.336 296.189 11.272 296.285 11.432L298.813 17.16C298.845 17.224 298.845 17.288 298.653 17.288H293.853ZM313.199 17.032C313.199 19.752 313.167 21.608 313.039 22.76C312.975 23.752 312.719 24.232 312.143 24.36C311.823 24.424 311.407 24.424 311.151 24.456C310.831 24.456 310.639 24.584 310.639 24.744C310.639 24.936 310.735 25.096 311.215 25.096C312.143 25.096 315.151 25 315.471 25C315.631 25 319.023 25.096 320.975 25.096C321.391 25.096 321.519 24.968 321.519 24.808C321.519 24.648 321.519 24.488 321.007 24.456C320.655 24.424 320.079 24.392 319.695 24.264C318.831 24.04 318.671 23.464 318.607 22.76C318.543 21.928 318.479 20.584 318.479 18.504V16.808C318.479 16.648 318.575 16.584 318.703 16.584L320.623 16.616C320.783 16.616 320.911 16.68 320.943 16.776C321.487 17.608 321.967 18.536 323.311 20.776C324.335 22.44 325.231 23.56 326.063 24.104C327.119 24.776 328.495 25.096 331.823 25.096H334.319C334.575 25.096 334.895 25.064 334.895 24.808C334.895 24.648 334.735 24.488 334.447 24.456C334.223 24.424 333.967 24.424 333.679 24.36C332.783 24.232 332.111 23.816 330.639 22.12C328.879 20.168 326.831 17.128 325.327 14.824C327.663 13.32 329.135 11.56 329.135 9.384C329.135 7.208 327.951 5.832 326.415 5.064C325.263 4.424 323.279 4.136 320.399 4.136C318.959 4.136 315.951 4.232 315.471 4.232C315.119 4.232 312.175 4.136 311.023 4.136C310.543 4.136 310.447 4.296 310.447 4.456C310.447 4.616 310.575 4.776 310.927 4.776C311.151 4.808 311.407 4.808 311.919 4.904C312.527 4.968 313.039 5.352 313.103 6.536C313.167 7.432 313.199 7.848 313.199 12.168V17.032ZM318.479 6.504C318.479 6.28 318.543 6.248 318.671 6.184C318.831 6.088 319.311 6.088 319.727 6.088C321.167 6.088 323.855 7.016 323.855 10.952C323.855 12.744 323.375 13.864 322.863 14.248C322.415 14.568 321.743 14.696 321.103 14.696C320.271 14.696 319.279 14.6 318.735 14.312C318.607 14.216 318.479 14.088 318.479 13.896V6.504Z" fill="#403367"/>
</svg>
