<svg viewBox="0 0 126 15" fill="none" xmlns="http://www.w3.org/2000/svg">
<path opacity="0.75" d="M3.528 10.062C3.78 10.0993 4.02733 10.1553 4.27 10.23C4.522 10.2953 4.746 10.3747 4.942 10.468V11H0.28V10.468C0.457333 10.3653 0.644 10.2813 0.84 10.216C1.04533 10.1507 1.24133 10.0993 1.428 10.062V2.138C1.21333 2.10067 1.008 2.04933 0.812 1.984C0.616 1.90933 0.438667 1.82533 0.28 1.732V1.2H2.044C2.41733 1.2 2.842 1.18133 3.318 1.144C3.80333 1.10667 4.24667 1.088 4.648 1.088C5.14267 1.088 5.62333 1.13933 6.09 1.242C6.566 1.33533 6.986 1.49867 7.35 1.732C7.72333 1.96533 8.022 2.278 8.246 2.67C8.47 3.05267 8.582 3.53333 8.582 4.112C8.582 4.66267 8.47 5.13867 8.246 5.54C8.03133 5.94133 7.742 6.27267 7.378 6.534C7.014 6.79533 6.594 6.99133 6.118 7.122C5.642 7.24333 5.152 7.304 4.648 7.304C4.60133 7.304 4.52667 7.304 4.424 7.304C4.32133 7.304 4.20933 7.304 4.088 7.304C3.976 7.29467 3.864 7.29 3.752 7.29C3.64933 7.28067 3.57467 7.27133 3.528 7.262V10.062ZM4.284 1.998C4.09733 1.998 3.948 2.00733 3.836 2.026C3.73333 2.03533 3.63067 2.054 3.528 2.082V6.338C3.612 6.366 3.738 6.38467 3.906 6.394C4.074 6.394 4.20933 6.394 4.312 6.394C4.564 6.394 4.80667 6.352 5.04 6.268C5.27333 6.184 5.47867 6.05333 5.656 5.876C5.84267 5.69867 5.992 5.47 6.104 5.19C6.216 4.91 6.272 4.574 6.272 4.182C6.272 3.43533 6.09 2.88467 5.726 2.53C5.362 2.17533 4.88133 1.998 4.284 1.998ZM9.38908 7.5C9.38908 6.93067 9.47308 6.422 9.64108 5.974C9.81841 5.51667 10.0657 5.12933 10.3831 4.812C10.7097 4.49467 11.1017 4.252 11.5591 4.084C12.0164 3.916 12.5344 3.832 13.1131 3.832C13.7664 3.832 14.3264 3.92533 14.7931 4.112C15.2691 4.28933 15.6564 4.54133 15.9551 4.868C16.2631 5.18533 16.4871 5.57267 16.6271 6.03C16.7671 6.478 16.8371 6.968 16.8371 7.5C16.8371 8.06933 16.7531 8.58267 16.5851 9.04C16.4171 9.488 16.1697 9.87067 15.8431 10.188C15.5257 10.5053 15.1337 10.748 14.6671 10.916C14.2097 11.084 13.6917 11.168 13.1131 11.168C12.4784 11.168 11.9277 11.0793 11.4611 10.902C10.9944 10.7153 10.6071 10.4633 10.2991 10.146C9.99108 9.81933 9.76241 9.432 9.61308 8.984C9.46374 8.52667 9.38908 8.032 9.38908 7.5ZM11.5591 7.5C11.5591 7.92 11.5824 8.30733 11.6291 8.662C11.6851 9.00733 11.7784 9.30133 11.9091 9.544C12.0397 9.78667 12.2171 9.978 12.4411 10.118C12.6651 10.2487 12.9544 10.314 13.3091 10.314C13.5144 10.314 13.7011 10.2673 13.8691 10.174C14.0371 10.0713 14.1817 9.91267 14.3031 9.698C14.4244 9.474 14.5131 9.18467 14.5691 8.83C14.6344 8.466 14.6671 8.02267 14.6671 7.5C14.6671 7.07067 14.6391 6.68333 14.5831 6.338C14.5364 5.99267 14.4477 5.69867 14.3171 5.456C14.1957 5.21333 14.0277 5.02667 13.8131 4.896C13.5984 4.756 13.3277 4.686 13.0011 4.686C12.7584 4.686 12.5484 4.73733 12.3711 4.84C12.1937 4.93333 12.0444 5.092 11.9231 5.316C11.8017 5.53067 11.7084 5.82 11.6431 6.184C11.5871 6.53867 11.5591 6.97733 11.5591 7.5ZM20.0676 11.168L17.8696 4.882C17.7389 4.83533 17.6082 4.78867 17.4776 4.742C17.3562 4.686 17.2396 4.62067 17.1276 4.546V4H20.6696V4.532C20.5389 4.60667 20.4082 4.67667 20.2776 4.742C20.1469 4.798 20.0116 4.84467 19.8716 4.882L20.8376 8.466L21.0196 9.544H21.0476L21.2996 8.424L22.7836 4.084L23.4696 4L25.0656 8.438L25.3596 9.544H25.3876L25.6116 8.452L26.4516 4.882C26.3489 4.86333 26.2276 4.826 26.0876 4.77C25.9569 4.714 25.8216 4.63933 25.6816 4.546V4H28.3836V4.546C28.1876 4.67667 27.9216 4.78867 27.5856 4.882L25.6396 11L24.3236 11.168L23.1196 7.71L22.8536 6.548H22.8116L22.4896 7.71L21.3696 11L20.0676 11.168ZM35.0501 9.824C34.9754 9.98267 34.8541 10.146 34.6861 10.314C34.5274 10.4727 34.3268 10.6173 34.0841 10.748C33.8508 10.8693 33.5754 10.9673 33.2581 11.042C32.9501 11.126 32.6141 11.168 32.2501 11.168C31.6714 11.168 31.1581 11.084 30.7101 10.916C30.2621 10.7387 29.8888 10.4913 29.5901 10.174C29.2914 9.84733 29.0628 9.46 28.9041 9.012C28.7548 8.564 28.6801 8.06 28.6801 7.5C28.6801 6.30533 28.9928 5.39533 29.6181 4.77C30.2434 4.14467 31.1114 3.832 32.2221 3.832C32.6981 3.832 33.1414 3.89733 33.5521 4.028C33.9721 4.15867 34.3174 4.37333 34.5881 4.672C34.8681 4.97067 35.0594 5.36267 35.1621 5.848C35.2741 6.33333 35.2694 6.926 35.1481 7.626H30.8501C30.8594 8.36333 31.0461 8.95133 31.4101 9.39C31.7834 9.82867 32.3294 10.048 33.0481 10.048C33.3561 10.048 33.6734 10.0013 34.0001 9.908C34.3361 9.81467 34.5974 9.69333 34.7841 9.544L35.0501 9.824ZM32.1661 4.63C31.9794 4.63 31.8114 4.66267 31.6621 4.728C31.5221 4.79333 31.3961 4.91467 31.2841 5.092C31.1814 5.26 31.0974 5.49333 31.0321 5.792C30.9668 6.08133 30.9201 6.45 30.8921 6.898H33.1461C33.2114 6.17 33.1694 5.61 33.0201 5.218C32.8708 4.826 32.5861 4.63 32.1661 4.63ZM39.8256 5.61C39.7136 5.666 39.583 5.75933 39.4336 5.89C39.2843 6.02067 39.149 6.23533 39.0276 6.534V10.118C39.2143 10.1367 39.401 10.174 39.5876 10.23C39.7743 10.2767 39.961 10.3513 40.1476 10.454V11H36.0876V10.454C36.2556 10.3607 36.4143 10.2907 36.5636 10.244C36.713 10.1973 36.8623 10.1553 37.0116 10.118V4.994L36.0876 4.882V4.336C36.237 4.27067 36.419 4.21 36.6336 4.154C36.8576 4.098 37.0863 4.05133 37.3196 4.014C37.553 3.96733 37.777 3.93 37.9916 3.902C38.2156 3.874 38.4023 3.85067 38.5516 3.832H39.0276V5.694H39.0836C39.1583 5.48867 39.2656 5.274 39.4056 5.05C39.555 4.826 39.7276 4.62067 39.9236 4.434C40.1196 4.24733 40.3343 4.098 40.5676 3.986C40.801 3.874 41.0436 3.82267 41.2956 3.832C41.3983 3.96267 41.487 4.14933 41.5616 4.392C41.6363 4.62533 41.697 4.84933 41.7436 5.064V5.61H39.8256ZM48.5989 9.824C48.5243 9.98267 48.4029 10.146 48.2349 10.314C48.0763 10.4727 47.8756 10.6173 47.6329 10.748C47.3996 10.8693 47.1243 10.9673 46.8069 11.042C46.4989 11.126 46.1629 11.168 45.7989 11.168C45.2203 11.168 44.7069 11.084 44.2589 10.916C43.8109 10.7387 43.4376 10.4913 43.1389 10.174C42.8403 9.84733 42.6116 9.46 42.4529 9.012C42.3036 8.564 42.2289 8.06 42.2289 7.5C42.2289 6.30533 42.5416 5.39533 43.1669 4.77C43.7923 4.14467 44.6603 3.832 45.7709 3.832C46.2469 3.832 46.6903 3.89733 47.1009 4.028C47.5209 4.15867 47.8663 4.37333 48.1369 4.672C48.4169 4.97067 48.6083 5.36267 48.7109 5.848C48.8229 6.33333 48.8183 6.926 48.6969 7.626H44.3989C44.4083 8.36333 44.5949 8.95133 44.9589 9.39C45.3323 9.82867 45.8783 10.048 46.5969 10.048C46.9049 10.048 47.2223 10.0013 47.5489 9.908C47.8849 9.81467 48.1463 9.69333 48.3329 9.544L48.5989 9.824ZM45.7149 4.63C45.5283 4.63 45.3603 4.66267 45.2109 4.728C45.0709 4.79333 44.9449 4.91467 44.8329 5.092C44.7303 5.26 44.6463 5.49333 44.5809 5.792C44.5156 6.08133 44.4689 6.45 44.4409 6.898H46.6949C46.7603 6.17 46.7183 5.61 46.5689 5.218C46.4196 4.826 46.1349 4.63 45.7149 4.63ZM54.5225 9.614C54.4758 9.81933 54.3918 10.0153 54.2705 10.202C54.1491 10.3887 54.0045 10.5567 53.8365 10.706C53.6685 10.846 53.4771 10.958 53.2625 11.042C53.0478 11.126 52.8191 11.168 52.5765 11.168C51.6525 11.168 50.9478 10.8787 50.4625 10.3C49.9865 9.712 49.7485 8.816 49.7485 7.612C49.7485 6.996 49.8325 6.45933 50.0005 6.002C50.1685 5.53533 50.4018 5.14333 50.7005 4.826C51.0085 4.50867 51.3771 4.27067 51.8065 4.112C52.2358 3.95333 52.7118 3.874 53.2345 3.874C53.4025 3.874 53.5425 3.87867 53.6545 3.888C53.7758 3.89733 53.8831 3.91133 53.9765 3.93C54.0791 3.93933 54.1725 3.96267 54.2565 4C54.3498 4.028 54.4525 4.06067 54.5645 4.098V1.634L53.5005 1.522V0.976C53.6311 0.919999 53.8085 0.868666 54.0325 0.821999C54.2658 0.775333 54.5085 0.733333 54.7605 0.695999C55.0125 0.649333 55.2598 0.607333 55.5025 0.569999C55.7451 0.532666 55.9458 0.5 56.1045 0.472H56.5805V10.006L57.5045 10.118V10.608C57.3738 10.6733 57.2058 10.734 57.0005 10.79C56.7951 10.846 56.5805 10.8973 56.3565 10.944C56.1325 10.9907 55.9131 11.028 55.6985 11.056C55.4931 11.0933 55.3205 11.1213 55.1805 11.14H54.7045L54.5785 9.614H54.5225ZM53.2485 10.048C53.5751 10.048 53.8505 9.94533 54.0745 9.74C54.2985 9.53467 54.4618 9.18467 54.5645 8.69V4.924C54.4431 4.84933 54.2891 4.78867 54.1025 4.742C53.9251 4.69533 53.7011 4.672 53.4305 4.672C52.8891 4.672 52.5018 4.91933 52.2685 5.414C52.0351 5.89933 51.9185 6.60867 51.9185 7.542C51.9185 8.298 52.0211 8.90467 52.2265 9.362C52.4318 9.81933 52.7725 10.048 53.2485 10.048ZM62.4068 1.634L61.3427 1.522V0.976C61.4827 0.919999 61.6648 0.863999 61.8888 0.807999C62.1221 0.752 62.3601 0.705333 62.6028 0.668C62.8548 0.621333 63.0974 0.583999 63.3308 0.555999C63.5734 0.518666 63.7788 0.490666 63.9468 0.472H64.4228V5.316H64.4508C64.6374 4.84933 64.9221 4.48533 65.3048 4.224C65.6874 3.96267 66.1401 3.832 66.6628 3.832C67.4841 3.832 68.1234 4.11667 68.5808 4.686C69.0381 5.25533 69.2668 6.11867 69.2668 7.276C69.2668 8.55467 68.9261 9.516 68.2448 10.16C67.5728 10.804 66.5834 11.126 65.2768 11.126C65.0434 11.126 64.7821 11.1073 64.4928 11.07C64.2034 11.042 63.9234 11.0047 63.6528 10.958C63.3821 10.9113 63.1301 10.8553 62.8968 10.79C62.6728 10.7247 62.5094 10.6593 62.4068 10.594V1.634ZM65.7528 4.952C65.3981 4.952 65.1134 5.08267 64.8988 5.344C64.6841 5.596 64.5254 5.918 64.4228 6.31V10.02C64.5534 10.1133 64.7121 10.188 64.8988 10.244C65.0948 10.3 65.3141 10.328 65.5568 10.328C66.0888 10.328 66.4761 10.09 66.7188 9.614C66.9708 9.138 67.0968 8.39133 67.0968 7.374C67.0968 6.63667 66.9941 6.04867 66.7888 5.61C66.5928 5.17133 66.2474 4.952 65.7528 4.952ZM70.2312 4.882C70.0912 4.84467 69.9606 4.798 69.8392 4.742C69.7272 4.686 69.6106 4.62067 69.4892 4.546V4H73.1712V4.532C72.9752 4.66267 72.7092 4.77933 72.3732 4.882L73.7872 8.396L74.0252 9.292H74.0532L74.2772 8.382L75.3692 4.882C75.0892 4.826 74.8326 4.714 74.5992 4.546V4H77.3012V4.546C77.1052 4.67667 76.8392 4.78867 76.5032 4.882L74.2212 11C73.9972 11.5973 73.7732 12.0827 73.5492 12.456C73.3252 12.8387 73.1012 13.142 72.8772 13.366C72.6532 13.59 72.4292 13.744 72.2052 13.828C71.9812 13.9213 71.7572 13.982 71.5332 14.01C71.4399 13.926 71.3559 13.8187 71.2812 13.688C71.2066 13.5667 71.1412 13.4313 71.0852 13.282C71.0292 13.142 70.9826 12.9973 70.9452 12.848C70.9079 12.6987 70.8846 12.5587 70.8752 12.428L71.0572 12.092H72.7652C72.8492 11.9613 72.9192 11.8213 72.9752 11.672C73.0406 11.5227 73.1152 11.2987 73.1992 11L70.2312 4.882ZM88.3871 8.046H88.9751C89.0125 8.242 89.0451 8.466 89.0731 8.718C89.1105 8.96067 89.1431 9.21733 89.1711 9.488C89.1991 9.74933 89.2178 10.0107 89.2271 10.272C89.2458 10.5333 89.2551 10.776 89.2551 11H81.3591V10.09L86.7911 2.11H83.3191L82.4931 4.112H81.9051C81.8585 3.90667 81.8165 3.67333 81.7791 3.412C81.7418 3.15067 81.7091 2.88933 81.6811 2.628C81.6531 2.35733 81.6345 2.10067 81.6251 1.858C81.6158 1.606 81.6111 1.38667 81.6111 1.2H89.0871V2.11L83.6831 10.09H87.5191L88.3871 8.046ZM96.5462 9.824C96.4715 9.98267 96.3502 10.146 96.1822 10.314C96.0235 10.4727 95.8229 10.6173 95.5802 10.748C95.3469 10.8693 95.0715 10.9673 94.7542 11.042C94.4462 11.126 94.1102 11.168 93.7462 11.168C93.1675 11.168 92.6542 11.084 92.2062 10.916C91.7582 10.7387 91.3849 10.4913 91.0862 10.174C90.7875 9.84733 90.5589 9.46 90.4002 9.012C90.2509 8.564 90.1762 8.06 90.1762 7.5C90.1762 6.30533 90.4889 5.39533 91.1142 4.77C91.7395 4.14467 92.6075 3.832 93.7182 3.832C94.1942 3.832 94.6375 3.89733 95.0482 4.028C95.4682 4.15867 95.8135 4.37333 96.0842 4.672C96.3642 4.97067 96.5555 5.36267 96.6582 5.848C96.7702 6.33333 96.7655 6.926 96.6442 7.626H92.3462C92.3555 8.36333 92.5422 8.95133 92.9062 9.39C93.2795 9.82867 93.8255 10.048 94.5442 10.048C94.8522 10.048 95.1695 10.0013 95.4962 9.908C95.8322 9.81467 96.0935 9.69333 96.2802 9.544L96.5462 9.824ZM93.6622 4.63C93.4755 4.63 93.3075 4.66267 93.1582 4.728C93.0182 4.79333 92.8922 4.91467 92.7802 5.092C92.6775 5.26 92.5935 5.49333 92.5282 5.792C92.4629 6.08133 92.4162 6.45 92.3882 6.898H94.6422C94.7075 6.17 94.6655 5.61 94.5162 5.218C94.3669 4.826 94.0822 4.63 93.6622 4.63ZM103.646 9.866C103.58 10.0527 103.473 10.2253 103.324 10.384C103.174 10.5333 102.992 10.6687 102.778 10.79C102.572 10.9113 102.334 11.0047 102.064 11.07C101.802 11.1353 101.527 11.168 101.238 11.168C100.622 11.168 100.09 11.084 99.6417 10.916C99.2031 10.7387 98.8391 10.4913 98.5497 10.174C98.2604 9.84733 98.0457 9.46 97.9057 9.012C97.7657 8.55467 97.6957 8.05067 97.6957 7.5C97.6957 6.31467 98.0177 5.40933 98.6617 4.784C99.3151 4.14933 100.239 3.832 101.434 3.832C101.891 3.832 102.311 3.88333 102.694 3.986C103.076 4.07933 103.394 4.19133 103.646 4.322C103.627 4.48067 103.599 4.658 103.562 4.854C103.534 5.04067 103.496 5.232 103.45 5.428C103.412 5.61467 103.366 5.80133 103.31 5.988C103.254 6.16533 103.198 6.31467 103.142 6.436H102.456L101.868 4.77C101.802 4.72333 101.732 4.69067 101.658 4.672C101.583 4.644 101.471 4.63 101.322 4.63C101.079 4.63 100.869 4.67667 100.692 4.77C100.514 4.854 100.36 5.00333 100.23 5.218C100.108 5.43267 100.015 5.71733 99.9497 6.072C99.8937 6.42667 99.8657 6.86533 99.8657 7.388C99.8657 7.77067 99.9077 8.12533 99.9917 8.452C100.076 8.76933 100.202 9.04933 100.37 9.292C100.547 9.52533 100.766 9.712 101.028 9.852C101.289 9.98267 101.597 10.048 101.952 10.048C102.278 10.048 102.563 10.0013 102.806 9.908C103.048 9.81467 103.254 9.70267 103.422 9.572L103.646 9.866ZM108.103 5.61C107.991 5.666 107.86 5.75933 107.711 5.89C107.562 6.02067 107.426 6.23533 107.305 6.534V10.118C107.492 10.1367 107.678 10.174 107.865 10.23C108.052 10.2767 108.238 10.3513 108.425 10.454V11H104.365V10.454C104.533 10.3607 104.692 10.2907 104.841 10.244C104.99 10.1973 105.14 10.1553 105.289 10.118V4.994L104.365 4.882V4.336C104.514 4.27067 104.696 4.21 104.911 4.154C105.135 4.098 105.364 4.05133 105.597 4.014C105.83 3.96733 106.054 3.93 106.269 3.902C106.493 3.874 106.68 3.85067 106.829 3.832H107.305V5.694H107.361C107.436 5.48867 107.543 5.274 107.683 5.05C107.832 4.826 108.005 4.62067 108.201 4.434C108.397 4.24733 108.612 4.098 108.845 3.986C109.078 3.874 109.321 3.82267 109.573 3.832C109.676 3.96267 109.764 4.14933 109.839 4.392C109.914 4.62533 109.974 4.84933 110.021 5.064V5.61H108.103ZM116.876 9.824C116.802 9.98267 116.68 10.146 116.512 10.314C116.354 10.4727 116.153 10.6173 115.91 10.748C115.677 10.8693 115.402 10.9673 115.084 11.042C114.776 11.126 114.44 11.168 114.076 11.168C113.498 11.168 112.984 11.084 112.536 10.916C112.088 10.7387 111.715 10.4913 111.416 10.174C111.118 9.84733 110.889 9.46 110.73 9.012C110.581 8.564 110.506 8.06 110.506 7.5C110.506 6.30533 110.819 5.39533 111.444 4.77C112.07 4.14467 112.938 3.832 114.048 3.832C114.524 3.832 114.968 3.89733 115.378 4.028C115.798 4.15867 116.144 4.37333 116.414 4.672C116.694 4.97067 116.886 5.36267 116.988 5.848C117.1 6.33333 117.096 6.926 116.974 7.626H112.676C112.686 8.36333 112.872 8.95133 113.236 9.39C113.61 9.82867 114.156 10.048 114.874 10.048C115.182 10.048 115.5 10.0013 115.826 9.908C116.162 9.81467 116.424 9.69333 116.61 9.544L116.876 9.824ZM113.992 4.63C113.806 4.63 113.638 4.66267 113.488 4.728C113.348 4.79333 113.222 4.91467 113.11 5.092C113.008 5.26 112.924 5.49333 112.858 5.792C112.793 6.08133 112.746 6.45 112.718 6.898H114.972C115.038 6.17 114.996 5.61 114.846 5.218C114.697 4.826 114.412 4.63 113.992 4.63ZM118.124 4.882C117.984 4.84467 117.853 4.798 117.732 4.742C117.62 4.686 117.503 4.62067 117.382 4.546V4H121.064V4.532C120.868 4.66267 120.602 4.77933 120.266 4.882L121.68 8.396L121.918 9.292H121.946L122.17 8.382L123.262 4.882C122.982 4.826 122.725 4.714 122.492 4.546V4H125.194V4.546C124.998 4.67667 124.732 4.78867 124.396 4.882L122.114 11C121.89 11.5973 121.666 12.0827 121.442 12.456C121.218 12.8387 120.994 13.142 120.77 13.366C120.546 13.59 120.322 13.744 120.098 13.828C119.874 13.9213 119.65 13.982 119.426 14.01C119.332 13.926 119.248 13.8187 119.174 13.688C119.099 13.5667 119.034 13.4313 118.978 13.282C118.922 13.142 118.875 12.9973 118.838 12.848C118.8 12.6987 118.777 12.5587 118.768 12.428L118.95 12.092H120.658C120.742 11.9613 120.812 11.8213 120.868 11.672C120.933 11.5227 121.008 11.2987 121.092 11L118.124 4.882Z" fill="#403367"/>
</svg>
